<svg id="Capa_1" data-name="Capa 1" xmlns="http://www.w3.org/2000/svg" viewBox="0 0 485.21 485.21"><defs><style>.cls-1{fill:#fff;}</style></defs><title>magnifier</title><path class="cls-1" d="M363.91,182c0-100.49-81.47-182-182-182A182,182,0,0,0,0,182c0,100.48,81.47,182,182,182S363.91,282.44,363.91,182ZM182,318.42C106.7,318.42,45.49,257.21,45.49,182S106.7,45.49,182,45.49,318.42,106.7,318.42,182,257.21,318.42,182,318.42Z" transform="translate(0)"/><path class="cls-1" d="M471.88,407.57,360.57,296.24a214.23,214.23,0,0,1-64.33,64.32L407.56,471.89a45.48,45.48,0,1,0,64.32-64.32Z" transform="translate(0)"/></svg>