<svg id="Capa_1" data-name="Capa 1" xmlns="http://www.w3.org/2000/svg" viewBox="0 0 268.76 268.76"><defs><style>.cls-1{fill:#fff;}</style></defs><title>settings-work-tool</title><g id="Settings"><path class="cls-1" d="M267.92,119.46c-.42-3.78-4.83-6.62-8.64-6.62A29.67,29.67,0,0,1,239,61.2a7.46,7.46,0,0,0,.82-10.13,132.86,132.86,0,0,0-21.29-21.5,7.47,7.47,0,0,0-10.21.82c-8,8.87-22.4,12.17-33.52,7.53A29.84,29.84,0,0,1,156.62,8.74,7.45,7.45,0,0,0,150,.9,133.45,133.45,0,0,0,119.79.82a7.47,7.47,0,0,0-6.65,7.68,29.93,29.93,0,0,1-18.4,28.68c-11,4.48-25.28,1.21-33.27-7.58a7.5,7.5,0,0,0-10.14-.85A133.14,133.14,0,0,0,29.59,50.24a7.48,7.48,0,0,0,.8,10.22A29.78,29.78,0,0,1,37.9,94c-4.63,11-16.1,18.16-29.24,18.16a7.3,7.3,0,0,0-7.76,6.6,135.19,135.19,0,0,0-.06,30.56c.43,3.79,5,6.61,8.82,6.61a29.47,29.47,0,0,1,27.65,18.41,29.9,29.9,0,0,1-7.52,33.23A7.47,7.47,0,0,0,29,217.69,133.45,133.45,0,0,0,50.23,239.2a7.48,7.48,0,0,0,10.23-.81c8-8.9,22.43-12.19,33.5-7.54A29.79,29.79,0,0,1,112.14,260a7.47,7.47,0,0,0,6.6,7.85A133.33,133.33,0,0,0,149,268a7.47,7.47,0,0,0,6.65-7.7A29.86,29.86,0,0,1,174,231.6c11.06-4.52,25.29-1.22,33.28,7.57a7.51,7.51,0,0,0,10.14.85,134,134,0,0,0,21.74-21.5,7.46,7.46,0,0,0-.8-10.21,29.79,29.79,0,0,1-7.53-33.53,30.09,30.09,0,0,1,27.49-18.21l1.66,0a7.48,7.48,0,0,0,7.87-6.59A134.61,134.61,0,0,0,267.92,119.46Zm-133.32,60a44.83,44.83,0,1,1,44.82-44.82A44.88,44.88,0,0,1,134.6,179.49Z" transform="translate(0 0)"/></g></svg>